<svg class="border shadow-md" viewBox="0 0 601.04 601.04" style="width: 601.04px; height: 601.04px;" xmlns="http://www.w3.org/2000/svg" preserveAspectRatio="none"><rect class="bg" id="bg" x="0" y="0" width="601.04" height="601.04" fill="#FC6767"/><g transform="rotate(0 300.52 300.52)"><path d="M -400.52 -24.64 S -210.26 -51.96&#xA;            0.00 -24.64 190.26 -51.96&#xA;            400.52 -24.64 404.04 -51.96&#xA;            801.04 -24.64 991.30 -65.64&#xA;            1201.56 -24.64 h 110 V 801.04 H -400.52 Z" fill="#EC008C" id="-1"/><path d="M -400.52 30.00 S -210.26 -23.00&#xA;            0.00 30.00 190.26 2.68&#xA;            400.52 30.00 544.04 -1.00&#xA;            801.04 30.00 991.30 -13.00&#xA;            1201.56 30.00 h 110 V 801.04 H -400.52 Z" fill="#e2048b" id="0"/><path d="M -400.52 84.64 S -210.26 57.32&#xA;            0.00 84.64 190.26 49.64&#xA;            400.52 84.64 590.78 34.64&#xA;            801.04 84.64 973.56 57.32&#xA;            1201.56 84.64 h 110 V 801.04 H -400.52 Z" fill="#d8088a" id="1"/><path d="M -400.52 139.28 S -210.26 111.96&#xA;            0.00 139.28 190.26 111.96&#xA;            400.52 139.28 590.78 111.96&#xA;            801.04 139.28 938.56 111.96&#xA;            1201.56 139.28 h 110 V 801.04 H -400.52 Z" fill="#ce0c89" id="2"/><path d="M -400.52 193.92 S -210.26 166.60&#xA;            0.00 193.92 190.26 146.92&#xA;            400.52 193.92 572.04 166.60&#xA;            801.04 193.92 793.56 162.92&#xA;            1201.56 193.92 h 110 V 801.04 H -400.52 Z" fill="#c41088" id="3"/><path d="M -400.52 248.56 S -210.26 221.24&#xA;            0.00 248.56 190.26 221.24&#xA;            400.52 248.56 590.78 221.24&#xA;            801.04 248.56 991.30 213.56&#xA;            1201.56 248.56 h 110 V 801.04 H -400.52 Z" fill="#ba1487" id="4"/><path d="M -400.52 303.20 S -210.26 272.20&#xA;            0.00 303.20 190.26 275.88&#xA;            400.52 303.20 435.04 269.20&#xA;            801.04 303.20 991.30 254.20&#xA;            1201.56 303.20 h 110 V 801.04 H -400.52 Z" fill="#b01886" id="5"/><path d="M -400.52 357.84 S -332.00 330.52&#xA;            0.00 357.84 190.26 330.52&#xA;            400.52 357.84 565.04 330.52&#xA;            801.04 357.84 960.56 314.84&#xA;            1201.56 357.84 h 110 V 801.04 H -400.52 Z" fill="#a61c85" id="6"/><path d="M -400.52 412.48 S -210.26 372.48&#xA;            0.00 412.48 122.52 385.16&#xA;            400.52 412.48 452.04 376.48&#xA;            801.04 412.48 964.56 381.48&#xA;            1201.56 412.48 h 110 V 801.04 H -400.52 Z" fill="#9c2084" id="7"/><path d="M -400.52 467.12 S -210.26 415.12&#xA;            0.00 467.12 190.26 414.12&#xA;            400.52 467.12 590.78 413.12&#xA;            801.04 467.12 991.30 439.80&#xA;            1201.56 467.12 h 110 V 801.04 H -400.52 Z" fill="#922483" id="8"/><path d="M -400.52 521.76 S -210.26 494.44&#xA;            0.00 521.76 190.26 494.44&#xA;            400.52 521.76 590.78 473.76&#xA;            801.04 521.76 870.56 478.76&#xA;            1201.56 521.76 h 110 V 801.04 H -400.52 Z" fill="#882882" id="9"/><path id="10" d="M -400.52 576.40 S -210.26 549.08&#xA;            0.00 576.40 190.26 549.08&#xA;            400.52 576.40 590.78 549.08&#xA;            801.04 576.40 991.30 536.40&#xA;            1201.56 576.40 h 110 V 801.04 H -400.52 Z" fill="#7e2c81"/></g></svg>